<?xml version="1.0" standalone="yes"?>
<svg xmlns="http://www.w3.org/2000/svg" width="128" height="128">
<path style="fill:#000000; stroke:none;" d="M0 0L0 128L128 128L128 0L0 0z"/>
<path style="fill:#ee4266; stroke:none;" d="M11 35C9.84909 49.0908 4.85484 63.1685 2 77L14 77L23 35L11 35M26 35C24.9241 40.5481 22.9199 46.3151 23.0548 52C23.1947 57.8977 25.5085 64.3497 27.1559 69.9961C28.9548 76.1622 35.8729 79.9732 41.2508 74.6821C43.215 72.7496 44.7391 70.2101 46.3711 68C48.5153 65.0963 50.4519 62.2581 52 59C52.6049 64.9505 50.4902 71.2426 49 77L61 77C63.7138 63.0063 68.0988 49.1186 70 35C66.7185 35 62.375 34.2807 59.3002 35.6034C55.9398 37.0489 53.7299 41.1968 51.6265 44C46.6701 50.6056 42.1763 58.514 36 64C34.8666 55.59 32.6894 40.5179 26 35M80 35C78.8491 49.0908 73.8548 63.1685 71 77L83 77C85.1326 66.0031 88.506 55.0947 90 44L112 44L111 51C105.988 51 95.4145 48.9945 91.9383 53.4336C90.1107 55.7674 90.1227 59.1943 90 62L108 62C110.829 61.9953 114.243 62.3582 116.772 60.821C121.469 57.966 122.492 47.0302 123.315 42.0039C123.676 39.7988 123.733 37.5724 121.678 36.179C118.449 33.989 112.696 35 109 35L80 35z"/>
<path style="fill:#732031; stroke:none;" d="M123 36L124 37L123 36z"/>
<path style="fill:#9e2b44; stroke:none;" d="M22 37L23 38L22 37z"/>
<path style="fill:#45141e; stroke:none;" d="M33 53L34 54L33 53z"/>
<path style="fill:#551824; stroke:none;" d="M6 57L7 58L6 57M75 57L76 58L75 57M40 59L41 60L40 59M51 60L52 61L51 60z"/>
<path style="fill:#ee4266; stroke:none;" d="M100 64C100.46 74.6899 103.698 76.9989 114 77C112.946 72.7215 112.189 68.4049 112 64L100 64z"/>
<path style="fill:#9e2b44; stroke:none;" d="M4 66L5 67L4 66M73 66L74 67L73 66z"/>
<path style="fill:#90283e; stroke:none;" d="M43 71L44 72L43 71z"/>
</svg>
